<?xml version="1.0" encoding="utf-8" standalone="no"?>
<!DOCTYPE svg PUBLIC "-//W3C//DTD SVG 1.1//EN"
  "http://www.w3.org/Graphics/SVG/1.1/DTD/svg11.dtd">
<svg xmlns:xlink="http://www.w3.org/1999/xlink" width="856.8pt" height="567.323938pt" viewBox="0 0 856.8 567.323938" xmlns="http://www.w3.org/2000/svg" version="1.1">
 <metadata>
  <rdf:RDF xmlns:dc="http://purl.org/dc/elements/1.1/" xmlns:cc="http://creativecommons.org/ns#" xmlns:rdf="http://www.w3.org/1999/02/22-rdf-syntax-ns#">
   <cc:Work>
    <dc:type rdf:resource="http://purl.org/dc/dcmitype/StillImage"/>
    <dc:date>2026-07-10T15:24:09.233506</dc:date>
    <dc:format>image/svg+xml</dc:format>
    <dc:creator>
     <cc:Agent>
      <dc:title>Matplotlib v3.10.0, https://matplotlib.org/</dc:title>
     </cc:Agent>
    </dc:creator>
   </cc:Work>
  </rdf:RDF>
 </metadata>
 <defs>
  <style type="text/css">*{stroke-linejoin: round; stroke-linecap: butt}</style>
 </defs>
 <g id="figure_1">
  <g id="patch_1">
   <path d="M 0 567.323938 
L 856.8 567.323938 
L 856.8 0 
L 0 0 
z
" style="fill: #ffffff"/>
  </g>
  <g id="axes_1">
   <g id="patch_2">
    <path d="M 302.04 89.568732 
L 554.76 89.568732 
Q 563.184 89.568732 563.184 84.167868 
L 563.184 40.960956 
Q 563.184 35.560092 554.76 35.560092 
L 302.04 35.560092 
Q 293.616 35.560092 293.616 40.960956 
L 293.616 84.167868 
Q 293.616 89.568732 302.04 89.568732 
z
" clip-path="url(#pcb11526754)" style="fill: #ffe4b5; stroke: #000000; stroke-width: 1.5; stroke-linejoin: miter"/>
   </g>
   <g id="patch_3">
    <path d="M 302.04 170.581692 
L 554.76 170.581692 
Q 563.184 170.581692 563.184 165.180828 
L 563.184 121.973916 
Q 563.184 116.573052 554.76 116.573052 
L 302.04 116.573052 
Q 293.616 116.573052 293.616 121.973916 
L 293.616 165.180828 
Q 293.616 170.581692 302.04 170.581692 
z
" clip-path="url(#pcb11526754)" style="fill: #b0e0e6; stroke: #000000; stroke-width: 1.5; stroke-linejoin: miter"/>
   </g>
   <g id="patch_4">
    <path d="M 302.04 251.594652 
L 554.76 251.594652 
Q 563.184 251.594652 563.184 246.193788 
L 563.184 202.986876 
Q 563.184 197.586012 554.76 197.586012 
L 302.04 197.586012 
Q 293.616 197.586012 293.616 202.986876 
L 293.616 246.193788 
Q 293.616 251.594652 302.04 251.594652 
z
" clip-path="url(#pcb11526754)" style="fill: #98fb98; stroke: #000000; stroke-width: 1.5; stroke-linejoin: miter"/>
   </g>
   <g id="patch_5">
    <path d="M 302.04 332.607612 
L 554.76 332.607612 
Q 563.184 332.607612 563.184 327.206748 
L 563.184 283.999836 
Q 563.184 278.598972 554.76 278.598972 
L 302.04 278.598972 
Q 293.616 278.598972 293.616 283.999836 
L 293.616 327.206748 
Q 293.616 332.607612 302.04 332.607612 
z
" clip-path="url(#pcb11526754)" style="fill: #b0e0e6; stroke: #000000; stroke-width: 1.5; stroke-linejoin: miter"/>
   </g>
   <g id="patch_6">
    <path d="M 302.04 413.620572 
L 554.76 413.620572 
Q 563.184 413.620572 563.184 408.219708 
L 563.184 365.012796 
Q 563.184 359.611932 554.76 359.611932 
L 302.04 359.611932 
Q 293.616 359.611932 293.616 365.012796 
L 293.616 408.219708 
Q 293.616 413.620572 302.04 413.620572 
z
" clip-path="url(#pcb11526754)" style="fill: #dda0dd; stroke: #000000; stroke-width: 1.5; stroke-linejoin: miter"/>
   </g>
   <g id="patch_7">
    <path d="M 302.04 494.633532 
L 554.76 494.633532 
Q 563.184 494.633532 563.184 489.232668 
L 563.184 446.025756 
Q 563.184 440.624892 554.76 440.624892 
L 302.04 440.624892 
Q 293.616 440.624892 293.616 446.025756 
L 293.616 489.232668 
Q 293.616 494.633532 302.04 494.633532 
z
" clip-path="url(#pcb11526754)" style="fill: #f0e68c; stroke: #000000; stroke-width: 1.5; stroke-linejoin: miter"/>
   </g>
   <g id="patch_8">
    <path d="M 302.04 575.646492 
L 554.76 575.646492 
Q 563.184 575.646492 563.184 570.245628 
L 563.184 527.038716 
Q 563.184 521.637852 554.76 521.637852 
L 302.04 521.637852 
Q 293.616 521.637852 293.616 527.038716 
L 293.616 570.245628 
Q 293.616 575.646492 302.04 575.646492 
z
" clip-path="url(#pcb11526754)" style="fill: #ffb6c1; stroke: #000000; stroke-width: 1.5; stroke-linejoin: miter"/>
   </g>
   <g id="text_1">
    <!-- FASTQ -->
    <g transform="translate(408.630078 59.440928) scale(0.11 -0.11)">
     <defs>
      <path id="DejaVuSans-Bold-46" d="M 588 4666 
L 3834 4666 
L 3834 3756 
L 1791 3756 
L 1791 2888 
L 3713 2888 
L 3713 1978 
L 1791 1978 
L 1791 0 
L 588 0 
L 588 4666 
z
" transform="scale(0.015625)"/>
      <path id="DejaVuSans-Bold-41" d="M 3419 850 
L 1538 850 
L 1241 0 
L 31 0 
L 1759 4666 
L 3194 4666 
L 4922 0 
L 3713 0 
L 3419 850 
z
M 1838 1716 
L 3116 1716 
L 2478 3572 
L 1838 1716 
z
" transform="scale(0.015625)"/>
      <path id="DejaVuSans-Bold-53" d="M 3834 4519 
L 3834 3531 
Q 3450 3703 3084 3790 
Q 2719 3878 2394 3878 
Q 1963 3878 1756 3759 
Q 1550 3641 1550 3391 
Q 1550 3203 1689 3098 
Q 1828 2994 2194 2919 
L 2706 2816 
Q 3484 2659 3812 2340 
Q 4141 2022 4141 1434 
Q 4141 663 3683 286 
Q 3225 -91 2284 -91 
Q 1841 -91 1394 -6 
Q 947 78 500 244 
L 500 1259 
Q 947 1022 1364 901 
Q 1781 781 2169 781 
Q 2563 781 2772 912 
Q 2981 1044 2981 1288 
Q 2981 1506 2839 1625 
Q 2697 1744 2272 1838 
L 1806 1941 
Q 1106 2091 782 2419 
Q 459 2747 459 3303 
Q 459 4000 909 4375 
Q 1359 4750 2203 4750 
Q 2588 4750 2994 4692 
Q 3400 4634 3834 4519 
z
" transform="scale(0.015625)"/>
      <path id="DejaVuSans-Bold-54" d="M 31 4666 
L 4331 4666 
L 4331 3756 
L 2784 3756 
L 2784 0 
L 1581 0 
L 1581 3756 
L 31 3756 
L 31 4666 
z
" transform="scale(0.015625)"/>
      <path id="DejaVuSans-Bold-51" d="M 2847 -84 
L 2753 -84 
Q 1600 -84 959 553 
Q 319 1191 319 2328 
Q 319 3463 958 4106 
Q 1597 4750 2719 4750 
Q 3853 4750 4486 4112 
Q 5119 3475 5119 2328 
Q 5119 1541 4783 972 
Q 4447 403 3816 116 
L 4756 -934 
L 3609 -934 
L 2847 -84 
z
M 2719 3878 
Q 2169 3878 1866 3472 
Q 1563 3066 1563 2328 
Q 1563 1578 1859 1179 
Q 2156 781 2719 781 
Q 3272 781 3575 1187 
Q 3878 1594 3878 2328 
Q 3878 3066 3575 3472 
Q 3272 3878 2719 3878 
z
" transform="scale(0.015625)"/>
     </defs>
     <use xlink:href="#DejaVuSans-Bold-46"/>
     <use xlink:href="#DejaVuSans-Bold-41" transform="translate(56.810547 0)"/>
     <use xlink:href="#DejaVuSans-Bold-53" transform="translate(134.203125 0)"/>
     <use xlink:href="#DejaVuSans-Bold-54" transform="translate(206.224609 0)"/>
     <use xlink:href="#DejaVuSans-Bold-51" transform="translate(274.4375 0)"/>
    </g>
    <!-- (Raw) -->
    <g transform="translate(410.344531 71.758521) scale(0.11 -0.11)">
     <defs>
      <path id="DejaVuSans-Bold-28" d="M 2413 -844 
L 1484 -844 
Q 1006 -72 778 623 
Q 550 1319 550 2003 
Q 550 2688 779 3389 
Q 1009 4091 1484 4856 
L 2413 4856 
Q 2013 4116 1813 3408 
Q 1613 2700 1613 2009 
Q 1613 1319 1811 609 
Q 2009 -100 2413 -844 
z
" transform="scale(0.015625)"/>
      <path id="DejaVuSans-Bold-52" d="M 2297 2597 
Q 2675 2597 2839 2737 
Q 3003 2878 3003 3200 
Q 3003 3519 2839 3656 
Q 2675 3794 2297 3794 
L 1791 3794 
L 1791 2597 
L 2297 2597 
z
M 1791 1766 
L 1791 0 
L 588 0 
L 588 4666 
L 2425 4666 
Q 3347 4666 3776 4356 
Q 4206 4047 4206 3378 
Q 4206 2916 3982 2619 
Q 3759 2322 3309 2181 
Q 3556 2125 3751 1926 
Q 3947 1728 4147 1325 
L 4800 0 
L 3519 0 
L 2950 1159 
Q 2778 1509 2601 1637 
Q 2425 1766 2131 1766 
L 1791 1766 
z
" transform="scale(0.015625)"/>
      <path id="DejaVuSans-Bold-61" d="M 2106 1575 
Q 1756 1575 1579 1456 
Q 1403 1338 1403 1106 
Q 1403 894 1545 773 
Q 1688 653 1941 653 
Q 2256 653 2472 879 
Q 2688 1106 2688 1447 
L 2688 1575 
L 2106 1575 
z
M 3816 1997 
L 3816 0 
L 2688 0 
L 2688 519 
Q 2463 200 2181 54 
Q 1900 -91 1497 -91 
Q 953 -91 614 226 
Q 275 544 275 1050 
Q 275 1666 698 1953 
Q 1122 2241 2028 2241 
L 2688 2241 
L 2688 2328 
Q 2688 2594 2478 2717 
Q 2269 2841 1825 2841 
Q 1466 2841 1156 2769 
Q 847 2697 581 2553 
L 581 3406 
Q 941 3494 1303 3539 
Q 1666 3584 2028 3584 
Q 2975 3584 3395 3211 
Q 3816 2838 3816 1997 
z
" transform="scale(0.015625)"/>
      <path id="DejaVuSans-Bold-77" d="M 225 3500 
L 1313 3500 
L 1900 1088 
L 2491 3500 
L 3425 3500 
L 4013 1113 
L 4603 3500 
L 5691 3500 
L 4769 0 
L 3547 0 
L 2956 2406 
L 2369 0 
L 1147 0 
L 225 3500 
z
" transform="scale(0.015625)"/>
      <path id="DejaVuSans-Bold-29" d="M 513 -844 
Q 913 -100 1113 609 
Q 1313 1319 1313 2009 
Q 1313 2700 1113 3408 
Q 913 4116 513 4856 
L 1441 4856 
Q 1916 4091 2145 3389 
Q 2375 2688 2375 2003 
Q 2375 1319 2147 623 
Q 1919 -72 1441 -844 
L 513 -844 
z
" transform="scale(0.015625)"/>
     </defs>
     <use xlink:href="#DejaVuSans-Bold-28"/>
     <use xlink:href="#DejaVuSans-Bold-52" transform="translate(45.703125 0)"/>
     <use xlink:href="#DejaVuSans-Bold-61" transform="translate(122.705078 0)"/>
     <use xlink:href="#DejaVuSans-Bold-77" transform="translate(190.185547 0)"/>
     <use xlink:href="#DejaVuSans-Bold-29" transform="translate(282.568359 0)"/>
    </g>
   </g>
   <g id="text_2">
    <!-- FastQC -->
    <g transform="translate(406.639766 140.453888) scale(0.11 -0.11)">
     <defs>
      <path id="DejaVuSans-Bold-73" d="M 3272 3391 
L 3272 2541 
Q 2913 2691 2578 2766 
Q 2244 2841 1947 2841 
Q 1628 2841 1473 2761 
Q 1319 2681 1319 2516 
Q 1319 2381 1436 2309 
Q 1553 2238 1856 2203 
L 2053 2175 
Q 2913 2066 3209 1816 
Q 3506 1566 3506 1031 
Q 3506 472 3093 190 
Q 2681 -91 1863 -91 
Q 1516 -91 1145 -36 
Q 775 19 384 128 
L 384 978 
Q 719 816 1070 734 
Q 1422 653 1784 653 
Q 2113 653 2278 743 
Q 2444 834 2444 1013 
Q 2444 1163 2330 1236 
Q 2216 1309 1875 1350 
L 1678 1375 
Q 931 1469 631 1722 
Q 331 1975 331 2491 
Q 331 3047 712 3315 
Q 1094 3584 1881 3584 
Q 2191 3584 2531 3537 
Q 2872 3491 3272 3391 
z
" transform="scale(0.015625)"/>
      <path id="DejaVuSans-Bold-74" d="M 1759 4494 
L 1759 3500 
L 2913 3500 
L 2913 2700 
L 1759 2700 
L 1759 1216 
Q 1759 972 1856 886 
Q 1953 800 2241 800 
L 2816 800 
L 2816 0 
L 1856 0 
Q 1194 0 917 276 
Q 641 553 641 1216 
L 641 2700 
L 84 2700 
L 84 3500 
L 641 3500 
L 641 4494 
L 1759 4494 
z
" transform="scale(0.015625)"/>
      <path id="DejaVuSans-Bold-43" d="M 4288 256 
Q 3956 84 3597 -3 
Q 3238 -91 2847 -91 
Q 1681 -91 1000 561 
Q 319 1213 319 2328 
Q 319 3447 1000 4098 
Q 1681 4750 2847 4750 
Q 3238 4750 3597 4662 
Q 3956 4575 4288 4403 
L 4288 3438 
Q 3953 3666 3628 3772 
Q 3303 3878 2944 3878 
Q 2300 3878 1931 3465 
Q 1563 3053 1563 2328 
Q 1563 1606 1931 1193 
Q 2300 781 2944 781 
Q 3303 781 3628 887 
Q 3953 994 4288 1222 
L 4288 256 
z
" transform="scale(0.015625)"/>
     </defs>
     <use xlink:href="#DejaVuSans-Bold-46"/>
     <use xlink:href="#DejaVuSans-Bold-61" transform="translate(62.435547 0)"/>
     <use xlink:href="#DejaVuSans-Bold-73" transform="translate(129.916016 0)"/>
     <use xlink:href="#DejaVuSans-Bold-74" transform="translate(189.4375 0)"/>
     <use xlink:href="#DejaVuSans-Bold-51" transform="translate(237.240234 0)"/>
     <use xlink:href="#DejaVuSans-Bold-43" transform="translate(322.25 0)"/>
    </g>
    <!-- (QC) -->
    <g transform="translate(414.660313 152.771481) scale(0.11 -0.11)">
     <use xlink:href="#DejaVuSans-Bold-28"/>
     <use xlink:href="#DejaVuSans-Bold-51" transform="translate(45.703125 0)"/>
     <use xlink:href="#DejaVuSans-Bold-43" transform="translate(130.712891 0)"/>
     <use xlink:href="#DejaVuSans-Bold-29" transform="translate(204.101562 0)"/>
    </g>
   </g>
   <g id="text_3">
    <!-- Fastp -->
    <g transform="translate(411.415313 221.423879) scale(0.11 -0.11)">
     <defs>
      <path id="DejaVuSans-Bold-70" d="M 1656 506 
L 1656 -1331 
L 538 -1331 
L 538 3500 
L 1656 3500 
L 1656 2988 
Q 1888 3294 2169 3439 
Q 2450 3584 2816 3584 
Q 3463 3584 3878 3070 
Q 4294 2556 4294 1747 
Q 4294 938 3878 423 
Q 3463 -91 2816 -91 
Q 2450 -91 2169 54 
Q 1888 200 1656 506 
z
M 2400 2772 
Q 2041 2772 1848 2508 
Q 1656 2244 1656 1747 
Q 1656 1250 1848 986 
Q 2041 722 2400 722 
Q 2759 722 2948 984 
Q 3138 1247 3138 1747 
Q 3138 2247 2948 2509 
Q 2759 2772 2400 2772 
z
" transform="scale(0.015625)"/>
     </defs>
     <use xlink:href="#DejaVuSans-Bold-46"/>
     <use xlink:href="#DejaVuSans-Bold-61" transform="translate(62.435547 0)"/>
     <use xlink:href="#DejaVuSans-Bold-73" transform="translate(129.916016 0)"/>
     <use xlink:href="#DejaVuSans-Bold-74" transform="translate(189.4375 0)"/>
     <use xlink:href="#DejaVuSans-Bold-70" transform="translate(237.240234 0)"/>
    </g>
    <!-- (Trimming) -->
    <g transform="translate(394.428047 233.741473) scale(0.11 -0.11)">
     <defs>
      <path id="DejaVuSans-Bold-72" d="M 3138 2547 
Q 2991 2616 2845 2648 
Q 2700 2681 2553 2681 
Q 2122 2681 1889 2404 
Q 1656 2128 1656 1613 
L 1656 0 
L 538 0 
L 538 3500 
L 1656 3500 
L 1656 2925 
Q 1872 3269 2151 3426 
Q 2431 3584 2822 3584 
Q 2878 3584 2943 3579 
Q 3009 3575 3134 3559 
L 3138 2547 
z
" transform="scale(0.015625)"/>
      <path id="DejaVuSans-Bold-69" d="M 538 3500 
L 1656 3500 
L 1656 0 
L 538 0 
L 538 3500 
z
M 538 4863 
L 1656 4863 
L 1656 3950 
L 538 3950 
L 538 4863 
z
" transform="scale(0.015625)"/>
      <path id="DejaVuSans-Bold-6d" d="M 3781 2919 
Q 3994 3244 4286 3414 
Q 4578 3584 4928 3584 
Q 5531 3584 5847 3212 
Q 6163 2841 6163 2131 
L 6163 0 
L 5038 0 
L 5038 1825 
Q 5041 1866 5042 1909 
Q 5044 1953 5044 2034 
Q 5044 2406 4934 2573 
Q 4825 2741 4581 2741 
Q 4263 2741 4089 2478 
Q 3916 2216 3909 1719 
L 3909 0 
L 2784 0 
L 2784 1825 
Q 2784 2406 2684 2573 
Q 2584 2741 2328 2741 
Q 2006 2741 1831 2477 
Q 1656 2213 1656 1722 
L 1656 0 
L 531 0 
L 531 3500 
L 1656 3500 
L 1656 2988 
Q 1863 3284 2130 3434 
Q 2397 3584 2719 3584 
Q 3081 3584 3359 3409 
Q 3638 3234 3781 2919 
z
" transform="scale(0.015625)"/>
      <path id="DejaVuSans-Bold-6e" d="M 4056 2131 
L 4056 0 
L 2931 0 
L 2931 347 
L 2931 1631 
Q 2931 2084 2911 2256 
Q 2891 2428 2841 2509 
Q 2775 2619 2662 2680 
Q 2550 2741 2406 2741 
Q 2056 2741 1856 2470 
Q 1656 2200 1656 1722 
L 1656 0 
L 538 0 
L 538 3500 
L 1656 3500 
L 1656 2988 
Q 1909 3294 2193 3439 
Q 2478 3584 2822 3584 
Q 3428 3584 3742 3212 
Q 4056 2841 4056 2131 
z
" transform="scale(0.015625)"/>
      <path id="DejaVuSans-Bold-67" d="M 2919 594 
Q 2688 288 2409 144 
Q 2131 0 1766 0 
Q 1125 0 706 504 
Q 288 1009 288 1791 
Q 288 2575 706 3076 
Q 1125 3578 1766 3578 
Q 2131 3578 2409 3434 
Q 2688 3291 2919 2981 
L 2919 3500 
L 4044 3500 
L 4044 353 
Q 4044 -491 3511 -936 
Q 2978 -1381 1966 -1381 
Q 1638 -1381 1331 -1331 
Q 1025 -1281 716 -1178 
L 716 -306 
Q 1009 -475 1290 -558 
Q 1572 -641 1856 -641 
Q 2406 -641 2662 -400 
Q 2919 -159 2919 353 
L 2919 594 
z
M 2181 2772 
Q 1834 2772 1640 2515 
Q 1447 2259 1447 1791 
Q 1447 1309 1634 1061 
Q 1822 813 2181 813 
Q 2531 813 2725 1069 
Q 2919 1325 2919 1791 
Q 2919 2259 2725 2515 
Q 2531 2772 2181 2772 
z
" transform="scale(0.015625)"/>
     </defs>
     <use xlink:href="#DejaVuSans-Bold-28"/>
     <use xlink:href="#DejaVuSans-Bold-54" transform="translate(45.703125 0)"/>
     <use xlink:href="#DejaVuSans-Bold-72" transform="translate(102.916016 0)"/>
     <use xlink:href="#DejaVuSans-Bold-69" transform="translate(152.232422 0)"/>
     <use xlink:href="#DejaVuSans-Bold-6d" transform="translate(186.509766 0)"/>
     <use xlink:href="#DejaVuSans-Bold-6d" transform="translate(290.708984 0)"/>
     <use xlink:href="#DejaVuSans-Bold-69" transform="translate(394.908203 0)"/>
     <use xlink:href="#DejaVuSans-Bold-6e" transform="translate(429.185547 0)"/>
     <use xlink:href="#DejaVuSans-Bold-67" transform="translate(500.376953 0)"/>
     <use xlink:href="#DejaVuSans-Bold-29" transform="translate(571.958984 0)"/>
    </g>
   </g>
   <g id="text_4">
    <!-- FastQC -->
    <g transform="translate(406.639766 302.479808) scale(0.11 -0.11)">
     <use xlink:href="#DejaVuSans-Bold-46"/>
     <use xlink:href="#DejaVuSans-Bold-61" transform="translate(62.435547 0)"/>
     <use xlink:href="#DejaVuSans-Bold-73" transform="translate(129.916016 0)"/>
     <use xlink:href="#DejaVuSans-Bold-74" transform="translate(189.4375 0)"/>
     <use xlink:href="#DejaVuSans-Bold-51" transform="translate(237.240234 0)"/>
     <use xlink:href="#DejaVuSans-Bold-43" transform="translate(322.25 0)"/>
    </g>
    <!-- (Trimmed) -->
    <g transform="translate(396.498281 314.797401) scale(0.11 -0.11)">
     <defs>
      <path id="DejaVuSans-Bold-65" d="M 4031 1759 
L 4031 1441 
L 1416 1441 
Q 1456 1047 1700 850 
Q 1944 653 2381 653 
Q 2734 653 3104 758 
Q 3475 863 3866 1075 
L 3866 213 
Q 3469 63 3072 -14 
Q 2675 -91 2278 -91 
Q 1328 -91 801 392 
Q 275 875 275 1747 
Q 275 2603 792 3093 
Q 1309 3584 2216 3584 
Q 3041 3584 3536 3087 
Q 4031 2591 4031 1759 
z
M 2881 2131 
Q 2881 2450 2695 2645 
Q 2509 2841 2209 2841 
Q 1884 2841 1681 2658 
Q 1478 2475 1428 2131 
L 2881 2131 
z
" transform="scale(0.015625)"/>
      <path id="DejaVuSans-Bold-64" d="M 2919 2988 
L 2919 4863 
L 4044 4863 
L 4044 0 
L 2919 0 
L 2919 506 
Q 2688 197 2409 53 
Q 2131 -91 1766 -91 
Q 1119 -91 703 423 
Q 288 938 288 1747 
Q 288 2556 703 3070 
Q 1119 3584 1766 3584 
Q 2128 3584 2408 3439 
Q 2688 3294 2919 2988 
z
M 2181 722 
Q 2541 722 2730 984 
Q 2919 1247 2919 1747 
Q 2919 2247 2730 2509 
Q 2541 2772 2181 2772 
Q 1825 2772 1636 2509 
Q 1447 2247 1447 1747 
Q 1447 1247 1636 984 
Q 1825 722 2181 722 
z
" transform="scale(0.015625)"/>
     </defs>
     <use xlink:href="#DejaVuSans-Bold-28"/>
     <use xlink:href="#DejaVuSans-Bold-54" transform="translate(45.703125 0)"/>
     <use xlink:href="#DejaVuSans-Bold-72" transform="translate(102.916016 0)"/>
     <use xlink:href="#DejaVuSans-Bold-69" transform="translate(152.232422 0)"/>
     <use xlink:href="#DejaVuSans-Bold-6d" transform="translate(186.509766 0)"/>
     <use xlink:href="#DejaVuSans-Bold-6d" transform="translate(290.708984 0)"/>
     <use xlink:href="#DejaVuSans-Bold-65" transform="translate(394.908203 0)"/>
     <use xlink:href="#DejaVuSans-Bold-64" transform="translate(462.730469 0)"/>
     <use xlink:href="#DejaVuSans-Bold-29" transform="translate(534.3125 0)"/>
    </g>
   </g>
   <g id="text_5">
    <!-- STAR -->
    <g transform="translate(412.621875 383.449799) scale(0.11 -0.11)">
     <use xlink:href="#DejaVuSans-Bold-53"/>
     <use xlink:href="#DejaVuSans-Bold-54" transform="translate(72.021484 0)"/>
     <use xlink:href="#DejaVuSans-Bold-41" transform="translate(132.484375 0)"/>
     <use xlink:href="#DejaVuSans-Bold-52" transform="translate(209.876953 0)"/>
    </g>
    <!-- (Alignment) -->
    <g transform="translate(391.487266 395.767393) scale(0.11 -0.11)">
     <defs>
      <path id="DejaVuSans-Bold-6c" d="M 538 4863 
L 1656 4863 
L 1656 0 
L 538 0 
L 538 4863 
z
" transform="scale(0.015625)"/>
     </defs>
     <use xlink:href="#DejaVuSans-Bold-28"/>
     <use xlink:href="#DejaVuSans-Bold-41" transform="translate(45.703125 0)"/>
     <use xlink:href="#DejaVuSans-Bold-6c" transform="translate(123.095703 0)"/>
     <use xlink:href="#DejaVuSans-Bold-69" transform="translate(157.373047 0)"/>
     <use xlink:href="#DejaVuSans-Bold-67" transform="translate(191.650391 0)"/>
     <use xlink:href="#DejaVuSans-Bold-6e" transform="translate(263.232422 0)"/>
     <use xlink:href="#DejaVuSans-Bold-6d" transform="translate(334.423828 0)"/>
     <use xlink:href="#DejaVuSans-Bold-65" transform="translate(438.623047 0)"/>
     <use xlink:href="#DejaVuSans-Bold-6e" transform="translate(506.445312 0)"/>
     <use xlink:href="#DejaVuSans-Bold-74" transform="translate(577.636719 0)"/>
     <use xlink:href="#DejaVuSans-Bold-29" transform="translate(625.439453 0)"/>
    </g>
   </g>
   <g id="text_6">
    <!-- featureCounts -->
    <g transform="translate(384.030469 470.664524) scale(0.11 -0.11)">
     <defs>
      <path id="DejaVuSans-Bold-66" d="M 2841 4863 
L 2841 4128 
L 2222 4128 
Q 1984 4128 1890 4042 
Q 1797 3956 1797 3744 
L 1797 3500 
L 2753 3500 
L 2753 2700 
L 1797 2700 
L 1797 0 
L 678 0 
L 678 2700 
L 122 2700 
L 122 3500 
L 678 3500 
L 678 3744 
Q 678 4316 997 4589 
Q 1316 4863 1984 4863 
L 2841 4863 
z
" transform="scale(0.015625)"/>
      <path id="DejaVuSans-Bold-75" d="M 500 1363 
L 500 3500 
L 1625 3500 
L 1625 3150 
Q 1625 2866 1622 2436 
Q 1619 2006 1619 1863 
Q 1619 1441 1641 1255 
Q 1663 1069 1716 984 
Q 1784 875 1895 815 
Q 2006 756 2150 756 
Q 2500 756 2700 1025 
Q 2900 1294 2900 1772 
L 2900 3500 
L 4019 3500 
L 4019 0 
L 2900 0 
L 2900 506 
Q 2647 200 2364 54 
Q 2081 -91 1741 -91 
Q 1134 -91 817 281 
Q 500 653 500 1363 
z
" transform="scale(0.015625)"/>
      <path id="DejaVuSans-Bold-6f" d="M 2203 2784 
Q 1831 2784 1636 2517 
Q 1441 2250 1441 1747 
Q 1441 1244 1636 976 
Q 1831 709 2203 709 
Q 2569 709 2762 976 
Q 2956 1244 2956 1747 
Q 2956 2250 2762 2517 
Q 2569 2784 2203 2784 
z
M 2203 3584 
Q 3106 3584 3614 3096 
Q 4122 2609 4122 1747 
Q 4122 884 3614 396 
Q 3106 -91 2203 -91 
Q 1297 -91 786 396 
Q 275 884 275 1747 
Q 275 2609 786 3096 
Q 1297 3584 2203 3584 
z
" transform="scale(0.015625)"/>
     </defs>
     <use xlink:href="#DejaVuSans-Bold-66"/>
     <use xlink:href="#DejaVuSans-Bold-65" transform="translate(43.505859 0)"/>
     <use xlink:href="#DejaVuSans-Bold-61" transform="translate(111.328125 0)"/>
     <use xlink:href="#DejaVuSans-Bold-74" transform="translate(178.808594 0)"/>
     <use xlink:href="#DejaVuSans-Bold-75" transform="translate(226.611328 0)"/>
     <use xlink:href="#DejaVuSans-Bold-72" transform="translate(297.802734 0)"/>
     <use xlink:href="#DejaVuSans-Bold-65" transform="translate(347.119141 0)"/>
     <use xlink:href="#DejaVuSans-Bold-43" transform="translate(414.941406 0)"/>
     <use xlink:href="#DejaVuSans-Bold-6f" transform="translate(488.330078 0)"/>
     <use xlink:href="#DejaVuSans-Bold-75" transform="translate(557.03125 0)"/>
     <use xlink:href="#DejaVuSans-Bold-6e" transform="translate(628.222656 0)"/>
     <use xlink:href="#DejaVuSans-Bold-74" transform="translate(699.414062 0)"/>
     <use xlink:href="#DejaVuSans-Bold-73" transform="translate(747.216797 0)"/>
    </g>
   </g>
   <g id="text_7">
    <!-- MultiQC -->
    <g transform="translate(403.899219 545.518688) scale(0.11 -0.11)">
     <defs>
      <path id="DejaVuSans-Bold-4d" d="M 588 4666 
L 2119 4666 
L 3181 2169 
L 4250 4666 
L 5778 4666 
L 5778 0 
L 4641 0 
L 4641 3413 
L 3566 897 
L 2803 897 
L 1728 3413 
L 1728 0 
L 588 0 
L 588 4666 
z
" transform="scale(0.015625)"/>
     </defs>
     <use xlink:href="#DejaVuSans-Bold-4d"/>
     <use xlink:href="#DejaVuSans-Bold-75" transform="translate(99.511719 0)"/>
     <use xlink:href="#DejaVuSans-Bold-6c" transform="translate(170.703125 0)"/>
     <use xlink:href="#DejaVuSans-Bold-74" transform="translate(204.980469 0)"/>
     <use xlink:href="#DejaVuSans-Bold-69" transform="translate(252.783203 0)"/>
     <use xlink:href="#DejaVuSans-Bold-51" transform="translate(287.060547 0)"/>
     <use xlink:href="#DejaVuSans-Bold-43" transform="translate(372.070312 0)"/>
    </g>
    <!-- (Report) -->
    <g transform="translate(402.350625 557.836281) scale(0.11 -0.11)">
     <use xlink:href="#DejaVuSans-Bold-28"/>
     <use xlink:href="#DejaVuSans-Bold-52" transform="translate(45.703125 0)"/>
     <use xlink:href="#DejaVuSans-Bold-65" transform="translate(122.705078 0)"/>
     <use xlink:href="#DejaVuSans-Bold-70" transform="translate(190.527344 0)"/>
     <use xlink:href="#DejaVuSans-Bold-6f" transform="translate(262.109375 0)"/>
     <use xlink:href="#DejaVuSans-Bold-72" transform="translate(330.810547 0)"/>
     <use xlink:href="#DejaVuSans-Bold-74" transform="translate(380.126953 0)"/>
     <use xlink:href="#DejaVuSans-Bold-29" transform="translate(427.929688 0)"/>
    </g>
   </g>
   <g id="patch_9">
    <path d="M 428.4 91.569662 
Q 428.4 103.071771 428.4 112.337812 
" style="fill: none; stroke: #808080; stroke-width: 2; stroke-linecap: round"/>
    <path d="M 430.4 108.337812 
L 428.4 112.337812 
L 426.4 108.337812 
" style="fill: none; stroke: #808080; stroke-width: 2; stroke-linecap: round"/>
   </g>
   <g id="patch_10">
    <path d="M 428.4 172.582622 
Q 428.4 184.084731 428.4 193.350772 
" style="fill: none; stroke: #808080; stroke-width: 2; stroke-linecap: round"/>
    <path d="M 430.4 189.350772 
L 428.4 193.350772 
L 426.4 189.350772 
" style="fill: none; stroke: #808080; stroke-width: 2; stroke-linecap: round"/>
   </g>
   <g id="patch_11">
    <path d="M 428.4 253.595582 
Q 428.4 265.097691 428.4 274.363732 
" style="fill: none; stroke: #808080; stroke-width: 2; stroke-linecap: round"/>
    <path d="M 430.4 270.363732 
L 428.4 274.363732 
L 426.4 270.363732 
" style="fill: none; stroke: #808080; stroke-width: 2; stroke-linecap: round"/>
   </g>
   <g id="patch_12">
    <path d="M 428.4 334.608542 
Q 428.4 346.110651 428.4 355.376692 
" style="fill: none; stroke: #808080; stroke-width: 2; stroke-linecap: round"/>
    <path d="M 430.4 351.376692 
L 428.4 355.376692 
L 426.4 351.376692 
" style="fill: none; stroke: #808080; stroke-width: 2; stroke-linecap: round"/>
   </g>
   <g id="patch_13">
    <path d="M 428.4 415.621502 
Q 428.4 427.123611 428.4 436.389652 
" style="fill: none; stroke: #808080; stroke-width: 2; stroke-linecap: round"/>
    <path d="M 430.4 432.389652 
L 428.4 436.389652 
L 426.4 432.389652 
" style="fill: none; stroke: #808080; stroke-width: 2; stroke-linecap: round"/>
   </g>
   <g id="patch_14">
    <path d="M 428.4 496.634462 
Q 428.4 508.136571 428.4 517.402612 
" style="fill: none; stroke: #808080; stroke-width: 2; stroke-linecap: round"/>
    <path d="M 430.4 513.402612 
L 428.4 517.402612 
L 426.4 513.402612 
" style="fill: none; stroke: #808080; stroke-width: 2; stroke-linecap: round"/>
   </g>
   <g id="patch_15">
    <path d="M 556.757512 548.642172 
Q 638.99914 548.642172 719.004699 548.642172 
" style="fill: none; stroke: #008000; stroke-width: 2; stroke-linecap: round"/>
    <path d="M 715.004699 546.642172 
L 719.004699 548.642172 
L 715.004699 550.642172 
" style="fill: none; stroke: #008000; stroke-width: 2; stroke-linecap: round"/>
   </g>
   <g id="text_8">
    <!-- 🧬 RNA-seq Snakemake Pipeline -->
    <g transform="translate(288.93625 19.3575) scale(0.16 -0.16)">
     <defs>
      <path id="DejaVuSans-Bold-1f9ec" d="M 319 -1131 
L 319 4513 
L 3519 4513 
L 3519 -1131 
L 319 -1131 
z
M 678 -775 
L 3163 -775 
L 3163 4153 
L 678 4153 
L 678 -775 
z
" transform="scale(0.015625)"/>
      <path id="DejaVuSans-Bold-20" transform="scale(0.015625)"/>
      <path id="DejaVuSans-Bold-4e" d="M 588 4666 
L 1931 4666 
L 3628 1466 
L 3628 4666 
L 4769 4666 
L 4769 0 
L 3425 0 
L 1728 3200 
L 1728 0 
L 588 0 
L 588 4666 
z
" transform="scale(0.015625)"/>
      <path id="DejaVuSans-Bold-2d" d="M 347 2297 
L 2309 2297 
L 2309 1388 
L 347 1388 
L 347 2297 
z
" transform="scale(0.015625)"/>
      <path id="DejaVuSans-Bold-71" d="M 2181 2772 
Q 1825 2772 1636 2509 
Q 1447 2247 1447 1747 
Q 1447 1247 1636 984 
Q 1825 722 2181 722 
Q 2541 722 2730 984 
Q 2919 1247 2919 1747 
Q 2919 2247 2730 2509 
Q 2541 2772 2181 2772 
z
M 2919 506 
Q 2688 197 2409 53 
Q 2131 -91 1766 -91 
Q 1119 -91 703 423 
Q 288 938 288 1747 
Q 288 2556 703 3067 
Q 1119 3578 1766 3578 
Q 2131 3578 2409 3434 
Q 2688 3291 2919 2981 
L 2919 3500 
L 4044 3500 
L 4044 -1331 
L 2919 -1331 
L 2919 506 
z
" transform="scale(0.015625)"/>
      <path id="DejaVuSans-Bold-6b" d="M 538 4863 
L 1656 4863 
L 1656 2216 
L 2944 3500 
L 4244 3500 
L 2534 1894 
L 4378 0 
L 3022 0 
L 1656 1459 
L 1656 0 
L 538 0 
L 538 4863 
z
" transform="scale(0.015625)"/>
      <path id="DejaVuSans-Bold-50" d="M 588 4666 
L 2584 4666 
Q 3475 4666 3951 4270 
Q 4428 3875 4428 3144 
Q 4428 2409 3951 2014 
Q 3475 1619 2584 1619 
L 1791 1619 
L 1791 0 
L 588 0 
L 588 4666 
z
M 1791 3794 
L 1791 2491 
L 2456 2491 
Q 2806 2491 2997 2661 
Q 3188 2831 3188 3144 
Q 3188 3456 2997 3625 
Q 2806 3794 2456 3794 
L 1791 3794 
z
" transform="scale(0.015625)"/>
     </defs>
     <use xlink:href="#DejaVuSans-Bold-1f9ec"/>
     <use xlink:href="#DejaVuSans-Bold-20" transform="translate(60.009766 0)"/>
     <use xlink:href="#DejaVuSans-Bold-52" transform="translate(94.824219 0)"/>
     <use xlink:href="#DejaVuSans-Bold-4e" transform="translate(171.826172 0)"/>
     <use xlink:href="#DejaVuSans-Bold-41" transform="translate(255.517578 0)"/>
     <use xlink:href="#DejaVuSans-Bold-2d" transform="translate(332.910156 0)"/>
     <use xlink:href="#DejaVuSans-Bold-73" transform="translate(374.414062 0)"/>
     <use xlink:href="#DejaVuSans-Bold-65" transform="translate(433.935547 0)"/>
     <use xlink:href="#DejaVuSans-Bold-71" transform="translate(501.757812 0)"/>
     <use xlink:href="#DejaVuSans-Bold-20" transform="translate(573.339844 0)"/>
     <use xlink:href="#DejaVuSans-Bold-53" transform="translate(608.154297 0)"/>
     <use xlink:href="#DejaVuSans-Bold-6e" transform="translate(680.175781 0)"/>
     <use xlink:href="#DejaVuSans-Bold-61" transform="translate(751.367188 0)"/>
     <use xlink:href="#DejaVuSans-Bold-6b" transform="translate(818.847656 0)"/>
     <use xlink:href="#DejaVuSans-Bold-65" transform="translate(882.726562 0)"/>
     <use xlink:href="#DejaVuSans-Bold-6d" transform="translate(950.548828 0)"/>
     <use xlink:href="#DejaVuSans-Bold-61" transform="translate(1054.748047 0)"/>
     <use xlink:href="#DejaVuSans-Bold-6b" transform="translate(1122.228516 0)"/>
     <use xlink:href="#DejaVuSans-Bold-65" transform="translate(1186.107422 0)"/>
     <use xlink:href="#DejaVuSans-Bold-20" transform="translate(1253.929688 0)"/>
     <use xlink:href="#DejaVuSans-Bold-50" transform="translate(1288.744141 0)"/>
     <use xlink:href="#DejaVuSans-Bold-69" transform="translate(1362.035156 0)"/>
     <use xlink:href="#DejaVuSans-Bold-70" transform="translate(1396.3125 0)"/>
     <use xlink:href="#DejaVuSans-Bold-65" transform="translate(1467.894531 0)"/>
     <use xlink:href="#DejaVuSans-Bold-6c" transform="translate(1535.716797 0)"/>
     <use xlink:href="#DejaVuSans-Bold-69" transform="translate(1569.994141 0)"/>
     <use xlink:href="#DejaVuSans-Bold-6e" transform="translate(1604.271484 0)"/>
     <use xlink:href="#DejaVuSans-Bold-65" transform="translate(1675.462891 0)"/>
    </g>
   </g>
  </g>
 </g>
 <defs>
  <clipPath id="pcb11526754">
   <rect x="7.2" y="8.555772" width="842.4" height="540.0864"/>
  </clipPath>
 </defs>
</svg>
